# xmcd CD database file
#
# Track frame offsets:
#	150
#	14797
#	27950
#	42190
#	54337
#	67145
#	80792
#	92685
#	104882
#	116827
#	129717
#	141582
#	154450
#	166790
#	179542
#	192312
#	205145
#	218692
#	233090
#	245955
#	259650
#	272637
#
# Disc length: 3822 seconds
#
# Revision: 0
# Processed by: cddbd v1.4PL0 Copyright (c) Steve Scherf et al.
# Submitted via: CDex 1.40Release
#
DISCID=590eec16
DTITLE=Ivory Joe Hunter - I Almost Lost My Mind 1945-1950
DYEAR=1900
DGENRE=Blues
TTITLE0=Blues At Sunrise
TTITLE1=Boogin' In The Basement
TTITLE2=Reconversion Blues
TTITLE3=Are You AHep?
TTITLE4=I Love My Man
TTITLE5=We're Gonna' Boogie
TTITLE6=Pretty M ama Blues
TTITLE7=High Coast Low Pay Blues
TTITLE8=All States Boogie
TTITLE9=Landlord Blues
TTITLE10=I Like It
TTITLE11=Don't Fall In Love With Me
TTITLE12=What Did You Do To Me
TTITLE13=That's The Gal For Me
TTITLE14=I Quit Pretty Mama
TTITLE15=Please Don't Cry Anymore
TTITLE16=Lying Woman
TTITLE17=I Almost Lost My Mind
TTITLE18=S.P. Blues
TTITLE19=Old Man's Boogie
TTITLE20=I Found My Baby
TTITLE21=I Ain't Got No Gal No More
EXTD=ID3G: 0
EXTT0=
EXTT1=
EXTT2=
EXTT3=
EXTT4=
EXTT5=
EXTT6=
EXTT7=
EXTT8=
EXTT9=
EXTT10=
EXTT11=
EXTT12=
EXTT13=
EXTT14=
EXTT15=
EXTT16=
EXTT17=
EXTT18=
EXTT19=
EXTT20=
EXTT21=
PLAYORDER=
